# xmcd CD database file
#
# Track frame offsets:
#	150
#	18762
#	37480
#	56577
#
# Disc length: 1006 seconds
#
# Revision: 0
# Processed by: cddbd v1.5PL3 Copyright (c) Steve Scherf et al.
# Submitted via: CDex 1.51
#
DISCID=2f03ec04
DTITLE=加門亮 - 男の慕情
DYEAR=1995
DGENRE=Vocal
TTITLE0=男の慕情
TTITLE1=男の慕情 オリジナル・カラオケ
TTITLE2=リラ冷えの街
TTITLE3=リラ冷えの街 オリジナル・カラオケ
EXTD=YEAR: 1995
EXTT0=
EXTT1=
EXTT2=
EXTT3=
PLAYORDER=
